<svg width="33" height="33" viewBox="0 0 33 33" fill="none" xmlns="http://www.w3.org/2000/svg">
<path d="M0.458374 16.5392C0.458374 7.65806 7.64047 0.458496 16.5 0.458496C25.3596 0.458496 32.5417 7.65806 32.5417 16.5392C32.5417 24.8824 26.2033 31.7416 18.0902 32.5418C18.1336 32.5342 18.1769 32.526 18.2202 32.5173V21.1552H22.3908L23.0148 16.3015H18.2202V13.2025C18.2202 11.7971 18.6093 10.8397 20.6199 10.8397L23.1837 10.8384V6.49731C22.7402 6.43796 21.2185 6.30601 19.4476 6.30601C15.7511 6.30601 13.22 8.56781 13.22 12.7221V16.3015H9.03875V21.1552H13.22V32.2834C5.93355 30.7658 0.458374 24.2934 0.458374 16.5392Z" fill="#1A1A1A"/>
</svg>
