<svg width="33" height="33" viewBox="0 0 33 33" fill="none" xmlns="http://www.w3.org/2000/svg">
<path d="M16.7259 13.3236V18.6754C16.7259 19.2282 17.1737 19.6761 17.7266 19.6754C19.597 19.673 23.6064 19.668 25.5202 19.668C24.1419 23.7873 21.9994 26.03 16.7259 26.03C11.3888 26.03 7.22328 21.7633 7.22328 16.4995C7.22328 11.2371 11.3888 6.97037 16.7259 6.97037C19.5473 6.97037 21.3699 7.94865 23.0415 9.31174C24.3792 7.99238 24.2675 7.80372 27.6716 4.63274C24.7816 2.03899 20.9409 0.458496 16.7259 0.458496C7.74238 0.458496 0.458374 7.64005 0.458374 16.4995C0.458374 25.359 7.74238 32.5418 16.7259 32.5418C30.1541 32.5418 33.4363 21.0111 32.3486 13.3236H16.7259Z" fill="#1A1A1A"/>
</svg>
