<svg width="35" height="31" viewBox="0 0 35 31" fill="none" xmlns="http://www.w3.org/2000/svg">
<path d="M29.2578 2.62682C30.9347 2.28241 32.5884 1.39473 32.5884 1.39473C33.3256 1.04856 33.6012 1.31906 33.2037 2.01651C33.2037 2.01651 32.2112 4.07413 30.6949 5.02984C32.1797 4.84341 33.52 4.29924 33.52 4.29924C34.2926 4.0365 34.5007 4.66055 33.9952 5.29167C33.9952 5.29167 32.6842 7.11819 31.25 8.20833C31.2624 8.53802 31.2682 8.47983 31.2682 8.81639C31.2682 20.4922 25.3761 30.8125 10.3789 30.8125C4.74279 30.8125 1.72544 28.5762 1.72544 28.5762C0.269777 27.8354 0.435023 26.9706 2.05229 26.7287C2.05229 26.7287 7.48179 26.2115 9.99381 24.1372C-4.37503 16.9583 1.48563 3.05932 1.48563 3.05932C1.54196 2.25827 2.09591 2.05424 2.68917 2.61642C2.68917 2.61642 9.15627 9.35606 16.7492 9.67889C16.6231 9.11272 16.5601 8.52497 16.5601 7.91857C16.5601 3.64926 19.8479 0.1875 23.8993 0.1875C26.0129 0.1875 27.922 1.12555 29.2578 2.62682Z" fill="#1A1A1A"/>
</svg>
