<svg width="47" height="48" viewBox="0 0 47 48" fill="none" xmlns="http://www.w3.org/2000/svg">
<path d="M4.89583 47.3875H42.1042C44.8047 47.3875 47 45.1741 47 42.4513V4.93619C47 2.21339 44.8047 0 42.1042 0H4.89583C2.19529 0 0 2.21339 0 4.93619V42.4513C0 45.1741 2.19529 47.3875 4.89583 47.3875ZM42.1042 1.97448C43.7237 1.97448 45.0417 3.3033 45.0417 4.93619V42.4513C45.0417 44.0842 43.7237 45.413 42.1042 45.413H4.89583C3.27629 45.413 1.95833 44.0842 1.95833 42.4513V4.93619C1.95833 3.3033 3.27629 1.97448 4.89583 1.97448H42.1042Z" fill="black"/>
</svg>
